<svg width="25" height="241" viewBox="0 0 25 241" fill="none" xmlns="http://www.w3.org/2000/svg">
<path d="M25 236.528C25 237.232 24.8293 237.883 24.488 238.48C24.1467 239.056 23.688 239.515 23.112 239.856C22.5147 240.197 21.864 240.368 21.16 240.368L20.264 240.368L20.264 237.776L21.16 237.776C21.5013 237.776 21.8 237.659 22.056 237.424C22.2907 237.168 22.408 236.869 22.408 236.528L22.408 221.168C22.408 220.827 22.2907 220.539 22.056 220.304C21.8 220.048 21.5013 219.92 21.16 219.92L16.008 219.92C15.6667 219.92 15.3787 220.048 15.144 220.304C14.9093 220.539 14.792 220.827 14.792 221.168L14.792 236.528C14.792 237.232 14.6213 237.883 14.28 238.48C13.9173 239.056 13.448 239.515 12.872 239.856C12.296 240.197 11.656 240.368 10.952 240.368L5.8 240.368C5.096 240.368 4.456 240.197 3.88 239.856C3.28267 239.515 2.81333 239.056 2.472 238.48C2.13067 237.883 1.96 237.232 1.96 236.528L1.96 221.168C1.96 220.464 2.13066 219.824 2.472 219.248C2.81333 218.651 3.28266 218.181 3.88 217.84C4.456 217.499 5.096 217.328 5.8 217.328L6.696 217.328L6.696 219.92L5.8 219.92C5.45866 219.92 5.17066 220.048 4.936 220.304C4.68 220.539 4.552 220.827 4.552 221.168L4.552 236.528C4.552 236.869 4.68 237.168 4.936 237.424C5.17066 237.659 5.45867 237.776 5.8 237.776L10.952 237.776C11.2933 237.776 11.5813 237.659 11.816 237.424C12.0507 237.168 12.168 236.869 12.168 236.528L12.168 221.168C12.168 220.464 12.3493 219.824 12.712 219.248C13.0533 218.651 13.512 218.181 14.088 217.84C14.664 217.499 15.304 217.328 16.008 217.328L21.16 217.328C21.864 217.328 22.5147 217.499 23.112 217.84C23.688 218.181 24.1467 218.651 24.488 219.248C24.8293 219.824 25 220.464 25 221.168L25 236.528ZM25 213.959L0.359997 213.959L0.359997 211.335L6.44 211.335L6.44 198.919C6.44 198.215 6.62133 197.575 6.984 196.999C7.32533 196.402 7.79466 195.933 8.392 195.591C8.968 195.229 9.608 195.047 10.312 195.047L25 195.047L25 197.671L10.312 197.671C9.97066 197.671 9.68266 197.799 9.448 198.055C9.192 198.29 9.064 198.578 9.064 198.919L9.064 210.055C9.064 210.397 9.192 210.695 9.448 210.951C9.68266 211.207 9.97066 211.335 10.312 211.335L25 211.335L25 213.959ZM25 188.62C25 189.324 24.8293 189.975 24.488 190.572C24.1253 191.148 23.656 191.618 23.08 191.98C22.4827 192.322 21.832 192.492 21.128 192.492L14.408 192.492L14.408 176.236L10.312 176.236C9.97066 176.236 9.68266 176.364 9.448 176.62C9.192 176.855 9.064 177.143 9.064 177.484L9.064 192.492L6.44 192.492L6.44 177.484C6.44 176.759 6.62133 176.108 6.984 175.532C7.32533 174.935 7.79466 174.466 8.392 174.124C8.968 173.762 9.608 173.58 10.312 173.58L25 173.58L25 188.62ZM22.376 188.62L22.376 176.236L17.032 176.236L17.032 189.868L21.128 189.868C21.4693 189.868 21.768 189.751 22.024 189.516C22.2587 189.26 22.376 188.962 22.376 188.62ZM25 170.43L10.312 170.43C9.608 170.43 8.968 170.259 8.392 169.918C7.79466 169.555 7.32533 169.086 6.984 168.51C6.62133 167.912 6.44 167.262 6.44 166.558L6.43999 156.126L9.064 156.126L9.064 166.558C9.064 166.899 9.192 167.198 9.448 167.454C9.68266 167.688 9.97066 167.806 10.312 167.806L25 167.806L25 170.43ZM25 150.215C25 150.919 24.8293 151.569 24.488 152.167C24.1253 152.743 23.656 153.212 23.08 153.575C22.4827 153.916 21.832 154.087 21.128 154.087L10.312 154.087C9.608 154.087 8.968 153.916 8.39199 153.575C7.79466 153.212 7.32533 152.743 6.984 152.167C6.62133 151.569 6.43999 150.919 6.43999 150.215L6.43999 139.079C6.43999 138.353 6.62133 137.703 6.98399 137.127C7.32533 136.529 7.79466 136.06 8.39199 135.719C8.96799 135.356 9.60799 135.175 10.312 135.175L17.032 135.175L17.032 151.463L21.128 151.463C21.4693 151.463 21.768 151.345 22.024 151.111C22.2587 150.855 22.376 150.556 22.376 150.215L22.376 135.175L25 135.175L25 150.215ZM14.408 151.463L14.408 137.831L10.312 137.831C9.97066 137.831 9.68266 137.959 9.44799 138.215C9.19199 138.449 9.06399 138.737 9.06399 139.079L9.064 150.215C9.064 150.556 9.192 150.855 9.448 151.111C9.68266 151.345 9.97066 151.463 10.312 151.463L14.408 151.463ZM25 119.372C25 120.076 24.8293 120.726 24.488 121.324C24.1467 121.9 23.688 122.358 23.112 122.7C22.5147 123.041 21.864 123.212 21.16 123.212L20.264 123.212L20.264 120.62L21.16 120.62C21.5013 120.62 21.8 120.502 22.056 120.268C22.2907 120.012 22.408 119.713 22.408 119.372L22.408 104.012C22.408 103.67 22.2907 103.382 22.056 103.148C21.8 102.892 21.5013 102.764 21.16 102.764L16.008 102.764C15.6667 102.764 15.3787 102.892 15.144 103.148C14.9093 103.382 14.792 103.67 14.792 104.012L14.792 119.372C14.792 120.076 14.6213 120.726 14.28 121.324C13.9173 121.9 13.448 122.358 12.872 122.7C12.296 123.041 11.656 123.212 10.952 123.212L5.79999 123.212C5.09599 123.212 4.45599 123.041 3.87999 122.7C3.28266 122.358 2.81333 121.9 2.47199 121.324C2.13066 120.726 1.95999 120.076 1.95999 119.372L1.95999 104.012C1.95999 103.308 2.13066 102.668 2.47199 102.092C2.81333 101.494 3.28266 101.025 3.87999 100.684C4.45599 100.342 5.09599 100.172 5.79999 100.172L6.69599 100.172L6.69599 102.764L5.79999 102.764C5.45866 102.764 5.17066 102.892 4.93599 103.148C4.67999 103.382 4.55199 103.67 4.55199 104.012L4.55199 119.372C4.55199 119.713 4.67999 120.012 4.93599 120.268C5.17066 120.502 5.45866 120.62 5.79999 120.62L10.952 120.62C11.2933 120.62 11.5813 120.502 11.816 120.268C12.0507 120.012 12.168 119.713 12.168 119.372L12.168 104.012C12.168 103.308 12.3493 102.668 12.712 102.092C13.0533 101.494 13.512 101.025 14.088 100.684C14.664 100.342 15.304 100.172 16.008 100.172L21.16 100.172C21.864 100.172 22.5147 100.342 23.112 100.684C23.688 101.025 24.1467 101.494 24.488 102.092C24.8293 102.668 25 103.308 25 104.012L25 119.372ZM25 92.9632C25 93.6886 24.8293 94.3499 24.488 94.9472C24.1253 95.5232 23.656 95.9819 23.08 96.3232C22.4827 96.6646 21.832 96.8352 21.128 96.8352L0.359992 96.8352L0.359992 94.2112L6.43999 94.2112L6.43999 86.1792L9.06399 86.1792L9.06399 94.2112L21.128 94.2112C21.4693 94.2112 21.768 94.0939 22.024 93.8592C22.2587 93.6032 22.376 93.3046 22.376 92.9632L22.376 86.1792L25 86.1792L25 92.9632ZM25 79.8702C25 80.5742 24.8293 81.2249 24.488 81.8222C24.1253 82.3982 23.656 82.8676 23.08 83.2302C22.4827 83.5716 21.832 83.7422 21.128 83.7422L14.408 83.7422L14.408 67.4862L10.312 67.4862C9.97066 67.4862 9.68266 67.6142 9.44799 67.8702C9.19199 68.1049 9.06399 68.3929 9.06399 68.7342L9.06399 83.7422L6.43999 83.7422L6.43999 68.7342C6.43999 68.0089 6.62132 67.3582 6.98399 66.7822C7.32532 66.1849 7.79466 65.7156 8.39199 65.3742C8.96799 65.0116 9.60799 64.8302 10.312 64.8302L25 64.8302L25 79.8702ZM22.376 79.8702L22.376 67.4862L17.032 67.4862L17.032 81.1182L21.128 81.1182C21.4693 81.1182 21.768 81.0009 22.024 80.7662C22.2587 80.5102 22.376 80.2116 22.376 79.8702ZM25 57.6195C25 58.3448 24.8293 59.0062 24.488 59.6035C24.1253 60.1795 23.656 60.6382 23.08 60.9795C22.4827 61.3208 21.832 61.4915 21.128 61.4915L0.359991 61.4915L0.359991 58.8675L6.43999 58.8675L6.43999 50.8355L9.06399 50.8355L9.06399 58.8675L21.128 58.8675C21.4693 58.8675 21.768 58.7502 22.024 58.5155C22.2587 58.2595 22.376 57.9608 22.376 57.6195L22.376 50.8355L25 50.8355L25 57.6195ZM25 48.2422L6.43999 48.2422L6.43999 45.6182L25 45.6182L25 48.2422ZM2.98399 48.2422L0.35999 48.2422L0.35999 45.6182L2.98399 45.6182L2.98399 48.2422ZM25 37.746C25 38.45 24.8293 39.1007 24.488 39.698C24.1253 40.274 23.656 40.7433 23.08 41.106C22.4827 41.4473 21.832 41.618 21.128 41.618L10.312 41.618C9.60799 41.618 8.96799 41.4473 8.39199 41.106C7.79466 40.7433 7.32532 40.274 6.98399 39.698C6.62132 39.1007 6.43999 38.45 6.43999 37.746L6.43999 26.61C6.43999 25.8847 6.62132 25.234 6.98399 24.658C7.32532 24.0607 7.79466 23.5913 8.39199 23.25C8.96799 22.8873 9.60799 22.706 10.312 22.706L21.128 22.706C21.832 22.706 22.4827 22.8873 23.08 23.25C23.656 23.5913 24.1253 24.0607 24.488 24.658C24.8293 25.234 25 25.8847 25 26.61L25 37.746ZM22.376 37.746L22.376 26.61C22.376 26.2687 22.2587 25.9807 22.024 25.746C21.768 25.49 21.4693 25.362 21.128 25.362L10.312 25.362C9.97066 25.362 9.68266 25.49 9.44799 25.746C9.19199 25.9807 9.06399 26.2687 9.06399 26.61L9.06399 37.746C9.06399 38.0873 9.19199 38.386 9.44799 38.642C9.68266 38.8767 9.97066 38.994 10.312 38.994L21.128 38.994C21.4693 38.994 21.768 38.8767 22.024 38.642C22.2587 38.386 22.376 38.0873 22.376 37.746ZM25 19.8345L6.43999 19.8345L6.43999 4.7945C6.43999 4.0905 6.62132 3.4505 6.98399 2.8745C7.32532 2.27716 7.79465 1.80783 8.39199 1.4665C8.96799 1.10383 9.60799 0.922498 10.312 0.922498L25 0.922497L25 3.5465L10.312 3.5465C9.97066 3.5465 9.68266 3.6745 9.44799 3.9305C9.19199 4.16517 9.06399 4.45316 9.06399 4.7945L9.06399 15.9305C9.06399 16.2718 9.19199 16.5705 9.44799 16.8265C9.68266 17.0825 9.97066 17.2105 10.312 17.2105L25 17.2105L25 19.8345Z" fill="white"/>
</svg>
